<svg xmlns="http://www.w3.org/2000/svg" xmlns:xlink="http://www.w3.org/1999/xlink" width="1080" zoomAndPan="magnify" viewBox="0 0 810 1012.49997" height="1350" preserveAspectRatio="xMidYMid meet" version="1.0"><defs><g/><clipPath id="c249a1dee0"><path d="M 0.199219 0 L 809.800781 0 L 809.800781 1012 L 0.199219 1012 Z M 0.199219 0 " clip-rule="nonzero"/></clipPath></defs><g clip-path="url(#c249a1dee0)"><path fill="#ffffff" d="M 0.199219 0 L 809.800781 0 L 809.800781 1012 L 0.199219 1012 Z M 0.199219 0 " fill-opacity="1" fill-rule="nonzero"/><path fill="#f22b29" d="M 0.199219 0 L 809.800781 0 L 809.800781 1012 L 0.199219 1012 Z M 0.199219 0 " fill-opacity="1" fill-rule="nonzero"/></g><g fill="#ffffff" fill-opacity="1"><g transform="translate(83.446883, 532.611944)"><g><path d="M 44.203125 -54.734375 L 44.203125 -44.046875 L 29.703125 -44.046875 L 29.703125 0 L 16.375 0 L 16.375 -44.046875 L 1.875 -44.046875 L 1.875 -54.734375 Z M 44.203125 -54.734375 "/></g></g></g><g fill="#ffffff" fill-opacity="1"><g transform="translate(129.522164, 532.611944)"><g><path d="M 18.171875 -44.046875 L 18.171875 -32.984375 L 36.015625 -32.984375 L 36.015625 -22.6875 L 18.171875 -22.6875 L 18.171875 -10.6875 L 38.359375 -10.6875 L 38.359375 0 L 4.828125 0 L 4.828125 -54.734375 L 38.359375 -54.734375 L 38.359375 -44.046875 Z M 18.171875 -44.046875 "/></g></g></g><g fill="#ffffff" fill-opacity="1"><g transform="translate(171.699373, 532.611944)"><g><path d="M 2.578125 -27.4375 C 2.578125 -32.84375 3.742188 -37.664062 6.078125 -41.90625 C 8.421875 -46.144531 11.679688 -49.445312 15.859375 -51.8125 C 20.046875 -54.175781 24.789062 -55.359375 30.09375 -55.359375 C 36.59375 -55.359375 42.15625 -53.640625 46.78125 -50.203125 C 51.40625 -46.773438 54.5 -42.097656 56.0625 -36.171875 L 41.40625 -36.171875 C 40.3125 -38.460938 38.765625 -40.203125 36.765625 -41.390625 C 34.765625 -42.585938 32.488281 -43.1875 29.9375 -43.1875 C 25.832031 -43.1875 22.503906 -41.757812 19.953125 -38.90625 C 17.410156 -36.050781 16.140625 -32.226562 16.140625 -27.4375 C 16.140625 -22.65625 17.410156 -18.835938 19.953125 -15.984375 C 22.503906 -13.128906 25.832031 -11.703125 29.9375 -11.703125 C 32.488281 -11.703125 34.765625 -12.296875 36.765625 -13.484375 C 38.765625 -14.679688 40.3125 -16.425781 41.40625 -18.71875 L 56.0625 -18.71875 C 54.5 -12.789062 51.40625 -8.125 46.78125 -4.71875 C 42.15625 -1.3125 36.59375 0.390625 30.09375 0.390625 C 24.789062 0.390625 20.046875 -0.789062 15.859375 -3.15625 C 11.679688 -5.519531 8.421875 -8.804688 6.078125 -13.015625 C 3.742188 -17.234375 2.578125 -22.039062 2.578125 -27.4375 Z M 2.578125 -27.4375 "/></g></g></g><g fill="#ffffff" fill-opacity="1"><g transform="translate(231.10609, 532.611944)"><g><path d="M 52.234375 -54.734375 L 52.234375 0 L 38.90625 0 L 38.90625 -22.53125 L 18.171875 -22.53125 L 18.171875 0 L 4.828125 0 L 4.828125 -54.734375 L 18.171875 -54.734375 L 18.171875 -33.296875 L 38.90625 -33.296875 L 38.90625 -54.734375 Z M 52.234375 -54.734375 "/></g></g></g><g fill="#ffffff" fill-opacity="1"><g transform="translate(288.09599, 532.611944)"><g><path d="M 41.171875 -37.421875 C 40.179688 -39.242188 38.765625 -40.632812 36.921875 -41.59375 C 35.078125 -42.550781 32.90625 -43.03125 30.40625 -43.03125 C 26.09375 -43.03125 22.632812 -41.613281 20.03125 -38.78125 C 17.4375 -35.957031 16.140625 -32.175781 16.140625 -27.4375 C 16.140625 -22.394531 17.503906 -18.457031 20.234375 -15.625 C 22.960938 -12.800781 26.71875 -11.390625 31.5 -11.390625 C 34.769531 -11.390625 37.535156 -12.21875 39.796875 -13.875 C 42.054688 -15.539062 43.707031 -17.929688 44.75 -21.046875 L 27.828125 -21.046875 L 27.828125 -30.875 L 56.84375 -30.875 L 56.84375 -18.484375 C 55.851562 -15.148438 54.175781 -12.050781 51.8125 -9.1875 C 49.445312 -6.332031 46.441406 -4.019531 42.796875 -2.25 C 39.160156 -0.488281 35.054688 0.390625 30.484375 0.390625 C 25.078125 0.390625 20.253906 -0.789062 16.015625 -3.15625 C 11.785156 -5.519531 8.488281 -8.804688 6.125 -13.015625 C 3.757812 -17.234375 2.578125 -22.039062 2.578125 -27.4375 C 2.578125 -32.84375 3.757812 -37.664062 6.125 -41.90625 C 8.488281 -46.144531 11.773438 -49.445312 15.984375 -51.8125 C 20.191406 -54.175781 25 -55.359375 30.40625 -55.359375 C 36.957031 -55.359375 42.476562 -53.769531 46.96875 -50.59375 C 51.46875 -47.425781 54.445312 -43.035156 55.90625 -37.421875 Z M 41.171875 -37.421875 "/></g></g></g><g fill="#ffffff" fill-opacity="1"><g transform="translate(347.502707, 532.611944)"><g><path d="M 18.171875 -44.046875 L 18.171875 -32.984375 L 36.015625 -32.984375 L 36.015625 -22.6875 L 18.171875 -22.6875 L 18.171875 -10.6875 L 38.359375 -10.6875 L 38.359375 0 L 4.828125 0 L 4.828125 -54.734375 L 38.359375 -54.734375 L 38.359375 -44.046875 Z M 18.171875 -44.046875 "/></g></g></g><g fill="#ffffff" fill-opacity="1"><g transform="translate(389.679927, 532.611944)"><g><path d="M 44.203125 -54.734375 L 44.203125 -44.046875 L 29.703125 -44.046875 L 29.703125 0 L 16.375 0 L 16.375 -44.046875 L 1.875 -44.046875 L 1.875 -54.734375 Z M 44.203125 -54.734375 "/></g></g></g><g fill="#ffffff" fill-opacity="1"><g transform="translate(435.755208, 532.611944)"><g><path d="M 38.90625 -9.671875 L 18.484375 -9.671875 L 15.203125 0 L 1.25 0 L 21.046875 -54.734375 L 36.484375 -54.734375 L 56.296875 0 L 42.1875 0 Z M 35.46875 -19.953125 L 28.6875 -40 L 21.984375 -19.953125 Z M 35.46875 -19.953125 "/></g></g></g><g fill="#ffffff" fill-opacity="1"><g transform="translate(493.212883, 532.611944)"><g><path d="M 40.46875 -54.734375 L 40.46875 -44.046875 L 18.171875 -44.046875 L 18.171875 -32.515625 L 34.859375 -32.515625 L 34.859375 -22.140625 L 18.171875 -22.140625 L 18.171875 0 L 4.828125 0 L 4.828125 -54.734375 Z M 40.46875 -54.734375 "/></g></g></g><g fill="#ffffff" fill-opacity="1"><g transform="translate(535.857867, 532.611944)"><g><path d="M 32.75 0 L 21.359375 -20.65625 L 18.171875 -20.65625 L 18.171875 0 L 4.828125 0 L 4.828125 -54.734375 L 27.21875 -54.734375 C 31.53125 -54.734375 35.207031 -53.976562 38.25 -52.46875 C 41.289062 -50.96875 43.5625 -48.90625 45.0625 -46.28125 C 46.570312 -43.65625 47.328125 -40.726562 47.328125 -37.5 C 47.328125 -33.863281 46.300781 -30.613281 44.25 -27.75 C 42.195312 -24.894531 39.164062 -22.867188 35.15625 -21.671875 L 47.796875 0 Z M 18.171875 -30.09375 L 26.4375 -30.09375 C 28.875 -30.09375 30.703125 -30.691406 31.921875 -31.890625 C 33.148438 -33.085938 33.765625 -34.773438 33.765625 -36.953125 C 33.765625 -39.035156 33.148438 -40.671875 31.921875 -41.859375 C 30.703125 -43.054688 28.875 -43.65625 26.4375 -43.65625 L 18.171875 -43.65625 Z M 18.171875 -30.09375 "/></g></g></g><g fill="#ffffff" fill-opacity="1"><g transform="translate(586.688795, 532.611944)"><g><path d="M 18.171875 -54.734375 L 18.171875 0 L 4.828125 0 L 4.828125 -54.734375 Z M 18.171875 -54.734375 "/></g></g></g><g fill="#ffffff" fill-opacity="1"><g transform="translate(609.687431, 532.611944)"><g><path d="M 2.578125 -27.4375 C 2.578125 -32.84375 3.742188 -37.664062 6.078125 -41.90625 C 8.421875 -46.144531 11.679688 -49.445312 15.859375 -51.8125 C 20.046875 -54.175781 24.789062 -55.359375 30.09375 -55.359375 C 36.59375 -55.359375 42.15625 -53.640625 46.78125 -50.203125 C 51.40625 -46.773438 54.5 -42.097656 56.0625 -36.171875 L 41.40625 -36.171875 C 40.3125 -38.460938 38.765625 -40.203125 36.765625 -41.390625 C 34.765625 -42.585938 32.488281 -43.1875 29.9375 -43.1875 C 25.832031 -43.1875 22.503906 -41.757812 19.953125 -38.90625 C 17.410156 -36.050781 16.140625 -32.226562 16.140625 -27.4375 C 16.140625 -22.65625 17.410156 -18.835938 19.953125 -15.984375 C 22.503906 -13.128906 25.832031 -11.703125 29.9375 -11.703125 C 32.488281 -11.703125 34.765625 -12.296875 36.765625 -13.484375 C 38.765625 -14.679688 40.3125 -16.425781 41.40625 -18.71875 L 56.0625 -18.71875 C 54.5 -12.789062 51.40625 -8.125 46.78125 -4.71875 C 42.15625 -1.3125 36.59375 0.390625 30.09375 0.390625 C 24.789062 0.390625 20.046875 -0.789062 15.859375 -3.15625 C 11.679688 -5.519531 8.421875 -8.804688 6.078125 -13.015625 C 3.742188 -17.234375 2.578125 -22.039062 2.578125 -27.4375 Z M 2.578125 -27.4375 "/></g></g></g><g fill="#ffffff" fill-opacity="1"><g transform="translate(669.094171, 532.611944)"><g><path d="M 38.90625 -9.671875 L 18.484375 -9.671875 L 15.203125 0 L 1.25 0 L 21.046875 -54.734375 L 36.484375 -54.734375 L 56.296875 0 L 42.1875 0 Z M 35.46875 -19.953125 L 28.6875 -40 L 21.984375 -19.953125 Z M 35.46875 -19.953125 "/></g></g></g></svg>