<svg xmlns="http://www.w3.org/2000/svg" viewBox="0 0 304 182" fill="none">
  <path d="M86.4 66.4C86.4 63.7 86.6 61.4 87 59.6C87.5 57.8 88.2 56 89.3 54.3C89.8 53.5 89.9 52.7 89.9 51.9C89.9 50.8 89.2 49.8 87.6 48.8L80.4 44C79.5 43.4 78.6 43.1 77.8 43.1C76.7 43.1 75.6 43.7 74.5 44.8C73.1 46.5 71.9 48.3 70.9 50.3C69.9 52.3 69 54.5 68.2 56.9C54.5 43.2 36.1 36.4 13 36.4C7.2 36.4 1.9 37.1 -2.8 38.6C-7.5 40.1 -11.7 42.2 -15.3 44.9C-18.9 47.6 -21.8 50.9 -23.9 54.8C-26 58.7 -27.1 63.1 -27.1 67.9C-27.1 75.4 -24.3 82.1 -18.7 88C-13.1 93.9 -5.3 99 4.7 103.3L25.1 111.9C31.3 114.3 35.9 116.9 39 119.6C42.1 122.3 43.6 125.8 43.6 130.1C43.6 134.1 42 137.8 38.8 141.1C35.6 144.4 31.3 146.1 25.9 146.1C20.5 146.1 15.1 144.6 9.7 141.6C4.3 138.6 -0.5 134.6 -4.7 129.6C-5.5 128.5 -6.5 127.9 -7.7 127.9C-8.5 127.9 -9.4 128.3 -10.3 129L-18.1 134.4C-19.2 135.2 -19.8 136.2 -19.8 137.3C-19.8 138 -19.4 138.8 -18.7 139.7C-12.4 147.7 -4.9 153.9 3.8 158.3C12.5 162.7 22.1 164.9 32.6 164.9C38.8 164.9 44.7 164 50.3 162.2C55.9 160.4 60.8 157.8 65 154.4C69.2 151 72.5 146.9 74.9 142.1C77.3 137.3 78.5 131.9 78.5 125.9C78.5 118.7 75.7 112.3 70.1 106.7C64.5 101.1 56.5 96 46.1 91.4L25.1 82.6C19.1 80.2 14.7 77.7 11.9 75.1C9.1 72.5 7.7 69.1 7.7 64.9C7.7 60.9 9.1 57.5 12 54.7C14.9 51.9 18.9 50.5 24 50.5C29.6 50.5 35.2 52.1 40.8 55.3C46.4 58.5 51.2 62.5 55.2 67.3C55.8 68.1 56.6 68.7 57.5 69.1C58.4 69.5 59.3 69.7 60.1 69.7C61.3 69.7 62.3 69.2 63.2 68.3L70.8 62.7C71.9 61.8 72.5 60.7 72.5 59.4C72.5 58.6 72.2 57.8 71.6 57L86.4 66.4ZM273.5 123.4C267.7 123.4 262.1 122.5 256.7 120.7C251.3 118.9 246.5 116.4 242.3 113.2C238.1 110 234.7 106.1 232.1 101.5C229.5 96.9 228.2 91.8 228.2 86.2C228.2 80.6 229.5 75.5 232.1 71C234.7 66.5 238.1 62.6 242.3 59.3C246.5 56 251.3 53.5 256.7 51.7C262.1 49.9 267.7 49 273.5 49C279.3 49 284.9 49.9 290.3 51.7C295.7 53.5 300.5 56 304.7 59.3C308.9 62.6 312.3 66.5 314.9 71C317.5 75.5 318.8 80.6 318.8 86.2C318.8 91.8 317.5 96.9 314.9 101.5C312.3 106.1 308.9 110 304.7 113.2C300.5 116.4 295.7 118.9 290.3 120.7C284.9 122.5 279.3 123.4 273.5 123.4ZM273.5 111.6C279.9 111.6 285.1 109.7 289.1 105.9C293.1 102.1 295.1 96.8 295.1 90C295.1 83.2 293.1 77.9 289.1 74.1C285.1 70.3 279.9 68.4 273.5 68.4C267.1 68.4 261.9 70.3 257.9 74.1C253.9 77.9 251.9 83.2 251.9 90C251.9 96.8 253.9 102.1 257.9 105.9C261.9 109.7 267.1 111.6 273.5 111.6Z" fill="#FF9900"/>
  <path d="M273.5 123.4C267.7 123.4 262.1 122.5 256.7 120.7C251.3 118.9 246.5 116.4 242.3 113.2C238.1 110 234.7 106.1 232.1 101.5C229.5 96.9 228.2 91.8 228.2 86.2C228.2 80.6 229.5 75.5 232.1 71C234.7 66.5 238.1 62.6 242.3 59.3C246.5 56 251.3 53.5 256.7 51.7C262.1 49.9 267.7 49 273.5 49C279.3 49 284.9 49.9 290.3 51.7C295.7 53.5 300.5 56 304.7 59.3C308.9 62.6 312.3 66.5 314.9 71C317.5 75.5 318.8 80.6 318.8 86.2C318.8 91.8 317.5 96.9 314.9 101.5C312.3 106.1 308.9 110 304.7 113.2C300.5 116.4 295.7 118.9 290.3 120.7C284.9 122.5 279.3 123.4 273.5 123.4ZM273.5 111.6C279.9 111.6 285.1 109.7 289.1 105.9C293.1 102.1 295.1 96.8 295.1 90C295.1 83.2 293.1 77.9 289.1 74.1C285.1 70.3 279.9 68.4 273.5 68.4C267.1 68.4 261.9 70.3 257.9 74.1C253.9 77.9 251.9 83.2 251.9 90C251.9 96.8 253.9 102.1 257.9 105.9C261.9 109.7 267.1 111.6 273.5 111.6Z" fill="#FF9900"/>
  <path d="M130.3 49.7C131.9 49.7 133.2 50.1 134.2 51C135.2 51.9 135.7 53.1 135.7 54.6V58.6C135.7 60.1 135.2 61.3 134.2 62.2C133.2 63.1 131.9 63.5 130.3 63.5H126.7V120.6C126.7 122.1 126.2 123.3 125.2 124.2C124.2 125.1 122.9 125.5 121.3 125.5H114.5C112.9 125.5 111.6 125.1 110.6 124.2C109.6 123.3 109.1 122.1 109.1 120.6V63.5H105.5C103.9 63.5 102.6 63.1 101.6 62.2C100.6 61.3 100.1 60.1 100.1 58.6V54.6C100.1 53.1 100.6 51.9 101.6 51C102.6 50.1 103.9 49.7 105.5 49.7H130.3Z" fill="#FF9900"/>
  <path d="M198.9 123.4C193.1 123.4 187.5 122.5 182.1 120.7C176.7 118.9 171.9 116.4 167.7 113.2C163.5 110 160.1 106.1 157.5 101.5C154.9 96.9 153.6 91.8 153.6 86.2C153.6 80.6 154.9 75.5 157.5 71C160.1 66.5 163.5 62.6 167.7 59.3C171.9 56 176.7 53.5 182.1 51.7C187.5 49.9 193.1 49 198.9 49C204.7 49 210.3 49.9 215.7 51.7C221.1 53.5 225.9 56 230.1 59.3C234.3 62.6 237.7 66.5 240.3 71C242.9 75.5 244.2 80.6 244.2 86.2C244.2 91.8 242.9 96.9 240.3 101.5C237.7 106.1 234.3 110 230.1 113.2C225.9 116.4 221.1 118.9 215.7 120.7C210.3 122.5 204.7 123.4 198.9 123.4ZM198.9 111.6C205.3 111.6 210.5 109.7 214.5 105.9C218.5 102.1 220.5 96.8 220.5 90C220.5 83.2 218.5 77.9 214.5 74.1C210.5 70.3 205.3 68.4 198.9 68.4C192.5 68.4 187.3 70.3 183.3 74.1C179.3 77.9 177.3 83.2 177.3 90C177.3 96.8 179.3 102.1 183.3 105.9C187.3 109.7 192.5 111.6 198.9 111.6Z" fill="#FF9900"/>
</svg>
