<svg xmlns="http://www.w3.org/2000/svg" viewBox="0 0 1000 400" fill="none">
  <g fill="#1F70C1">
    <path d="M0 0h138v27.5H0zM0 55h138v27.5H0zM0 110h138v27.5H0zM0 165h138v27.5H0zM0 220h138v27.5H0zM0 275h138v27.5H0zM0 330h138v27.5H0zM0 385h138v27.5H0z"/>
    <path d="M222.5 0h69v412.5h-69z"/>
    <path d="M361 0h277.5v27.5H361zM361 55h277.5v27.5H361z"/>
    <path d="M444.5 110h110.5v27.5H444.5z"/>
    <path d="M444.5 165h110.5v27.5H444.5z"/>
    <path d="M361 220h277.5v27.5H361z"/>
    <path d="M361 275h277.5v27.5H361z"/>
    <path d="M444.5 330h110.5v27.5H444.5z"/>
    <path d="M444.5 385h110.5v27.5H444.5z"/>
    <path d="M708 0h69v412.5h-69z"/>
    <path d="M846.5 0H1000v27.5H846.5zM846.5 55H1000v27.5H846.5z"/>
    <path d="M846.5 110h69v27.5h-69z"/>
    <path d="M846.5 165h69v27.5h-69z"/>
    <path d="M846.5 220H1000v27.5H846.5z"/>
    <path d="M846.5 275H1000v27.5H846.5z"/>
    <path d="M846.5 330h69v27.5h-69z"/>
    <path d="M846.5 385h69v27.5h-69z"/>
  </g>
</svg>
