<svg xmlns="http://www.w3.org/2000/svg" viewBox="0 0 512 200" fill="none">
  <path d="M89.5 50C40 50 0 78 0 112.5S40 175 89.5 175 179 147 179 112.5 139 50 89.5 50zm0 95C55 145 30 131 30 112.5S55 80 89.5 80 149 94 149 112.5 124 145 89.5 145z" fill="#EA1B22"/>
  <path d="M205 54h65c24.5 0 44 9 54 24.5 6 9.5 9 21 9 33.5s-3 24-9 33.5c-10 15.5-29.5 24.5-54 24.5h-65V54zm55 91c14 0 25-3.5 31-11 4-5 6-11.5 6-18s-2-13-6-18c-6-7.5-17-11-31-11h-25v58h25zM419 170h-30l-9.5-27h-50L320 170h-29l48-116h31l49 116zm-48-50l-18-52-18 52h36zM508 145c-3.5 16.5-21 29-45 29-34 0-58.5-19.5-58.5-51.5S429 71 463 71c24 0 41.5 12.5 45 29h-30c-2.5-6.5-10.5-11-15-11-18.5 0-28.5 13-28.5 33.5S434.5 156 453 156c4.5 0 12.5-4.5 15-11h30z" fill="#EA1B22"/>
</svg>
