<svg xmlns="http://www.w3.org/2000/svg" viewBox="0 0 613 145" fill="none">
  <path d="M127.5 83.2c15.9 0 30.7-8.8 30.7-21.7 0-.9-.1-1.7-.2-2.6L144.2 24c-1.5-4.4-5.8-7.5-10.6-7.5-4.2 0-7.9 2.3-9.8 5.7l-14.3 25.4c-1.2 2.1-3.4 3.4-5.9 3.4H64.1c-3 0-5.5 2.5-5.5 5.5v3.7c0 2.3 1.5 4.4 3.7 5.2l54.6 20.7c3.5 1.3 7.2 2.1 10.6 2.1z" fill="#EE0000"/>
  <path d="M127.5 83.2c-3.4 0-7.1-.8-10.6-2.1L62.3 60.4c-2.2-.8-3.7-2.9-3.7-5.2v-3.7c0-3 2.5-5.5 5.5-5.5h39.5c2.5 0 4.7-1.3 5.9-3.4l14.3-25.4c1.9-3.4 5.6-5.7 9.8-5.7 4.8 0 9.1 3.1 10.6 7.5L158 58.9c.1.9.2 1.7.2 2.6 0 12.9-14.8 21.7-30.7 21.7zM216.7 98h-20.3c-2.5 0-4.6-1.8-5-4.2l-8.7-53.3c-.3-1.9-1.9-3.3-3.8-3.3h-16.2c-2.4 0-4.4 2-4.4 4.4V98h-24V39.5c0-10.4 8.4-18.8 18.8-18.8h38.9c9.4 0 17.4 6.9 18.7 16.2l6.1 37.4c.2 1.1 1.1 1.9 2.2 1.9h7.7c1.4 0 2.6-1.2 2.6-2.6V39.5c0-10.4 8.4-18.8 18.8-18.8h38.9c9.4 0 17.4 6.9 18.7 16.2l8.7 53.3c.4 2.4 2.5 4.2 5 4.2h20.3V98h-20.3c-10 0-18.6-7.3-20.1-17.1l-6.1-37.4c-.2-1.1-1.1-1.9-2.2-1.9h-7.7c-1.4 0-2.6 1.2-2.6 2.6V98h-24V43.2c0-2.4-2-4.4-4.4-4.4h-16.2c-1.9 0-3.5 1.4-3.8 3.3l-8.7 53.3c-1.5 9.8-10.1 17.1-20.1 17.1zM369.8 98h-47.1V20.7h47.1c17.8 0 32.2 14.4 32.2 32.2v12.9c0 17.8-14.4 32.2-32.2 32.2zm-23.1-24h23.1c4.9 0 8.9-4 8.9-8.9V52.9c0-4.9-4-8.9-8.9-8.9h-23.1V74zM436.4 98h-24V20.7h24V98zM532.8 98h-24V62.3c0-1.2-1-2.2-2.2-2.2h-27.7c-1.2 0-2.2 1-2.2 2.2V98h-24V20.7h24v17.1c0 1.2 1 2.2 2.2 2.2h27.7c1.2 0 2.2-1 2.2-2.2V20.7h24V98zM613 98h-23.1L568.5 61c-.9-1.4-2.5-2.2-4.2-2.2h-10.7c-1.2 0-2.2 1-2.2 2.2V98h-24V20.7h47.1c17.8 0 32.2 14.4 32.2 32.2 0 14.4-9.5 26.6-22.6 30.7l27.9 14.4zM553.6 37.9v17.7c0 1.2 1 2.2 2.2 2.2h20.9c4.9 0 8.9-4 8.9-8.9s-4-8.9-8.9-8.9h-20.9c-1.2 0-2.2-1-2.2-2.1z" fill="#EE0000"/>
  <path d="M53.6 113.8c-29.6 0-53.6-24-53.6-53.6S24 6.6 53.6 6.6c19.2 0 37 10.2 46.7 26.6l-20.8 12c-6.1-10.3-17.2-16.7-29.1-16.7-18.6 0-33.7 15.1-33.7 33.7s15.1 33.7 33.7 33.7c11.9 0 23-6.4 29.1-16.7l20.8 12c-9.7 16.4-27.5 26.6-46.7 26.6z" fill="#EE0000"/>
</svg>
