<svg xmlns="http://www.w3.org/2000/svg" viewBox="0 0 512 179" fill="none">
  <path d="M166.5 74.9c5.5-16.4 21.3-28.2 39.9-28.2 14.8 0 27.9 7.7 35.4 19.3 8.5-4.7 18.3-7.4 28.7-7.4 33.5 0 60.7 27.2 60.7 60.7 0 2.9-.2 5.7-.6 8.5 21 6.2 36.4 25.6 36.4 48.6 0 27.9-22.6 50.5-50.5 50.5-7.4 0-14.4-1.6-20.7-4.5-8.1 10.8-21 17.9-35.6 17.9-15.6 0-29.3-8-37.3-20.1-7.2 3.1-15.1 4.8-23.5 4.8-17.6 0-33.3-8.1-43.6-20.7-5.9 2.2-12.3 3.4-19 3.4-30.8 0-55.8-25-55.8-55.8 0-24.6 15.9-45.5 38-53-1.2-4.3-1.9-8.8-1.9-13.4 0-26.3 21.4-47.7 47.7-47.7 18.5 0 34.6 10.6 42.5 26.1z" fill="#00A1E0"/>
</svg>
